<svg height="28px" version="1.1" viewBox="0 0 104 28" width="104px" xmlns="http://www.w3.org/2000/svg" xmlns:xlink="http://www.w3.org/1999/xlink">
<!-- Generator: Sketch 63.1 (92452) - https://sketch.com -->
<title>Group</title>
<desc>Created with Sketch.</desc>
<defs>
<path d="M4.83855379,17.2454339 C6.06572323,17.2454339 7.01824046,16.8188464 7.69610549,15.9656715 L7.69610549,15.9656715 L7.69610549,17 L9.95760346,17 L9.95760346,8.234504 L7.69610549,8.234504 L7.69610549,9.26883253 C7.01824046,8.41565758 6.06572323,7.98907011 4.83855379,7.98907011 C3.66982099,7.98907011 2.66763262,8.43611041 1.83198866,9.330191 C0.996344712,10.2242716 0.578522736,11.3199586 0.578522736,12.617252 C0.578522736,13.9145454 0.996344712,15.0102324 1.83198866,15.904313 C2.66763262,16.7983936 3.66982099,17.2454339 4.83855379,17.2454339 Z M5.2592976,15.0891219 C4.55805792,15.0891219 3.97953518,14.861219 3.52372939,14.4054132 C3.0679236,13.9379201 2.8400207,13.3418663 2.8400207,12.617252 C2.8400207,11.8926377 3.0679236,11.2995058 3.52372939,10.8378563 C3.97953518,10.3762069 4.55805792,10.1453821 5.2592976,10.1453821 C5.96053728,10.1453821 6.54198185,10.3762069 7.0036313,10.8378563 C7.46528076,11.2995058 7.69610549,11.8926377 7.69610549,12.617252 C7.69610549,13.3418663 7.46528076,13.9349982 7.0036313,14.3966477 C6.54198185,14.8582971 5.96053728,15.0891219 5.2592976,15.0891219 Z M13.7355322,16.5617252 C14.3724916,17.0292183 15.4681786,17.1753099 17.0225932,17 L17.0225932,17 L17.0225932,14.9488739 C16.5901621,14.9722486 16.2278549,14.9751704 15.9356717,14.9576394 C15.6434885,14.9401084 15.4214293,14.861219 15.269494,14.720971 C15.1175588,14.5807231 15.0415911,14.3586639 15.0415911,14.0547933 L15.0415911,14.0547933 L15.0415911,10.408347 L17.0225932,10.408347 L17.0225932,8.234504 L15.0415911,8.234504 L15.0415911,5.78016512 L12.7800932,6.46387381 L12.7800932,8.234504 L11.2548969,8.234504 L11.2548969,10.408347 L12.7800932,10.408347 L12.7800932,14.0547933 C12.7800932,15.2585881 13.0985729,16.0942321 13.7355322,16.5617252 Z M20.8794115,17 L20.8794115,4.20237584 L18.6179135,4.20237584 L18.6179135,17 L20.8794115,17 Z M26.7522938,17.2454339 C27.9794632,17.2454339 28.9319805,16.8188464 29.6098455,15.9656715 L29.6098455,15.9656715 L29.6098455,17 L31.8713435,17 L31.8713435,8.234504 L29.6098455,8.234504 L29.6098455,9.26883253 C28.9319805,8.41565758 27.9794632,7.98907011 26.7522938,7.98907011 C25.583561,7.98907011 24.5813726,8.43611041 23.7457287,9.330191 C22.9100847,10.2242716 22.4922627,11.3199586 22.4922627,12.617252 C22.4922627,13.9145454 22.9100847,15.0102324 23.7457287,15.904313 C24.5813726,16.7983936 25.583561,17.2454339 26.7522938,17.2454339 Z M27.1730376,15.0891219 C26.4717979,15.0891219 25.8932752,14.861219 25.4374694,14.4054132 C24.9816636,13.9379201 24.7537607,13.3418663 24.7537607,12.617252 C24.7537607,11.8926377 24.9816636,11.2995058 25.4374694,10.8378563 C25.8932752,10.3762069 26.4717979,10.1453821 27.1730376,10.1453821 C27.8742773,10.1453821 28.4557218,10.3762069 28.9173713,10.8378563 C29.3790208,11.2995058 29.6098455,11.8926377 29.6098455,12.617252 C29.6098455,13.3418663 29.3790208,13.9349982 28.9173713,14.3966477 C28.4557218,14.8582971 27.8742773,15.0891219 27.1730376,15.0891219 Z M36.9378001,17.2454339 C37.9429104,17.2454339 38.7814761,17.0029218 39.4534975,16.5178977 C40.1255189,16.0328736 40.4615295,15.3403994 40.4615295,14.4404752 C40.4615295,13.8444214 40.3066724,13.34771 39.9969582,12.9503408 C39.6872441,12.5529717 39.3103277,12.269554 38.8662093,12.1000877 C38.4220908,11.9306215 37.9779723,11.7903735 37.5338539,11.6793439 C37.0897354,11.5683143 36.7128191,11.4397537 36.4031049,11.2936621 C36.0933907,11.1475705 35.9385336,10.9576514 35.9385336,10.7239049 C35.9385336,10.5018456 36.0349541,10.3265357 36.227795,10.1979751 C36.4206359,10.0694145 36.6631479,10.0051342 36.9553311,10.0051342 C37.6098215,10.0051342 38.0773146,10.3031611 38.3578105,10.8992148 L38.3578105,10.8992148 L40.2862196,9.84735526 C39.9472871,9.25130154 39.4856376,8.79257391 38.9012712,8.47117239 C38.3169048,8.14977087 37.6682581,7.98907011 36.9553311,7.98907011 C36.0086576,7.98907011 35.2168411,8.23742583 34.5798817,8.73413727 C33.9429223,9.23084871 33.6244427,9.91163557 33.6244427,10.7764978 C33.6244427,11.3491769 33.7792998,11.8254355 34.0890139,12.2052737 C34.3987281,12.5851118 34.7756445,12.8626859 35.2197629,13.0379958 C35.6638814,13.2133057 36.1079999,13.3593973 36.5521183,13.4762706 C36.9962368,13.5931439 37.3731531,13.7246263 37.6828673,13.8707179 C37.9925815,14.0168095 38.1474386,14.2067286 38.1474386,14.4404752 C38.1474386,14.9430303 37.7442258,15.1943078 36.9378001,15.1943078 C36.0495632,15.1943078 35.4768841,14.8144697 35.2197629,14.0547933 L35.2197629,14.0547933 L33.2562918,15.1592458 C33.9107822,16.5500379 35.1379516,17.2454339 36.9378001,17.2454339 Z M46.5798457,17 L49.9107342,8.234504 L47.4213334,8.234504 L45.2825523,14.3703512 L43.1613023,8.234504 L40.6719014,8.234504 L44.0027899,17 L46.5798457,17 Z M53.2591537,20.5061984 L53.2591537,15.9656715 C53.9253314,16.8188464 54.872005,17.2454339 56.0991744,17.2454339 C57.2795945,17.2454339 58.2876266,16.7983936 59.1232705,15.904313 C59.9589145,15.0102324 60.3767364,13.9145454 60.3767364,12.617252 C60.3767364,11.3199586 59.9589145,10.2242716 59.1232705,9.330191 C58.2876266,8.43611041 57.2795945,7.98907011 56.0991744,7.98907011 C54.872005,7.98907011 53.9253314,8.41565758 53.2591537,9.26883253 L53.2591537,9.26883253 L53.2591537,8.234504 L50.9976557,8.234504 L50.9976557,20.5061984 L53.2591537,20.5061984 Z M55.6784306,15.0891219 C54.9771909,15.0891219 54.3986682,14.861219 53.9428624,14.4054132 C53.4870566,13.9379201 53.2591537,13.3418663 53.2591537,12.617252 C53.2591537,11.8926377 53.4870566,11.2995058 53.9428624,10.8378563 C54.3986682,10.3762069 54.9771909,10.1453821 55.6784306,10.1453821 C56.3796703,10.1453821 56.9611148,10.3762069 57.4227643,10.8378563 C57.8844138,11.2995058 58.1152385,11.8926377 58.1152385,12.617252 C58.1152385,13.3418663 57.8844138,13.9349982 57.4227643,14.3966477 C56.9611148,14.8582971 56.3796703,15.0891219 55.6784306,15.0891219 Z M64.2335547,17 L64.2335547,12.2666322 C64.2335547,11.5420178 64.4088646,10.9985571 64.7594844,10.6362499 C65.1101043,10.2739427 65.5775974,10.0927892 66.1619638,10.0927892 C66.6878936,10.0927892 67.1086374,10.2476462 67.4241952,10.5573604 C67.7397531,10.8670746 67.897532,11.3141149 67.897532,11.8984813 L67.897532,11.8984813 L67.897532,17 L70.15903,17 L70.15903,11.6179855 C70.15903,10.4843146 69.846394,9.59607771 69.2211219,8.95327467 C68.5958499,8.31047163 67.8040334,7.98907011 66.8456725,7.98907011 C65.653565,7.98907011 64.7828591,8.39812659 64.2335547,9.21623955 L64.2335547,9.21623955 L64.2335547,8.234504 L61.9720567,8.234504 L61.9720567,17 L64.2335547,17 Z" id="path-1"></path>
</defs>
<g fill="none" fill-rule="evenodd" id="Page-1" stroke="none" stroke-width="1">
<g fill-rule="nonzero" id="person" transform="translate(-379.000000, -19.000000)">
<g id="header" transform="translate(-10.000000, -22.000000)">
<g id="Group" transform="translate(390.000000, 42.000000)">
<g fill="#3B3B4D" id="logo" stroke="#3B3B4D" stroke-width="0.52488">
<path d="M9.60135214,22.83459 C9.98328748,21.8132184 10.9554592,21.1321568 12.0470327,21.1212516 C13.126249,21.0903014 14.1090363,21.7385115 14.5043043,22.7419771 C15.1882913,24.2904411 16.599191,25.3972248 18.2674844,25.6940128 C20.0838706,26.0226065 21.9334456,25.3224173 23.0754085,23.8738885 C24.2173715,22.4253596 24.4649846,20.4653598 23.7190726,18.7789174 L23.6804363,18.6901634 L23.6804363,18.6901634 L19.7704382,9.46360485 C17.7420301,4.67860585 17.2822576,3.59426333 17.1856667,3.32800129 L17.1856667,3.32800129 C16.8124886,2.46516023 16.2326754,1.70716443 15.4972585,1.12072756 C14.5391847,0.36684138 13.3474771,-0.0289946602 12.1281691,0.0016552027 C10.8637326,-0.0120049288 9.63075138,0.395313956 8.62385261,1.15931625 C7.8749061,1.7449131 7.28177997,2.50561685 6.89680798,3.37430773 L0.417492888,18.7750586 C-0.389327432,20.6424667 -0.00657184079,22.8102574 1.39112879,24.289384 C2.55235325,25.4923031 4.23703906,26.0387793 5.88434617,25.7468879 C7.53165329,25.4549967 8.92530658,24.3630604 9.60135214,22.83459 Z M4.96499072,23.8494833 C4.12808227,23.8471997 3.32786879,23.5060664 2.7472645,22.9040497 C1.85991771,22.0068914 1.62003506,20.6553759 2.14453752,19.5082439 L8.64703442,4.14222289 C8.90580523,3.56611983 9.29616864,3.05861237 9.78680659,2.66041675 C10.4698039,2.14196975 11.3190192,1.89081316 12.1745327,1.9542435 C13.6038139,1.94031564 14.8940404,2.80707643 15.4199857,4.13450515 L21.9649826,19.5082439 C22.4758657,20.6564261 22.2390437,21.9993057 21.3661193,22.9040497 L21.3661193,22.9040497 C20.6452368,23.6475919 19.599254,23.9808503 18.5804388,23.7915898 C17.5337393,23.6095856 16.6492177,22.9132854 16.2274854,21.9393321 C15.5492246,20.2398597 13.8901615,19.1356935 12.0586237,19.1648045 L12.0315783,19.1648045 C10.200263,19.128275 8.53482523,20.2198229 7.8395348,21.91232 C7.44535932,22.8885673 6.58029686,23.5969274 5.54453589,23.7915898 C5.3512096,23.8304542 5.15446661,23.8498456 4.95726345,23.8494833 L4.96499072,23.8494833 Z" id="Shape"></path>
</g>
<g id="atlasvpn" transform="translate(31.912704, 2.000000)">
<g>
<use fill="#000000" href="#path-1"></use>
<use fill="#3B3B4D" href="#path-1"></use>
</g>
</g>
</g>
</g>
</g>
</g>
</svg>